<svg width="450" height="338" viewBox="0 0 450 338" fill="none" xmlns="http://www.w3.org/2000/svg">
<g opacity="0.7">
<path d="M382.207 169.868C382.207 256.65 311.869 327 225.104 327C138.338 327 68 256.65 68 169.868C68 83.0855 138.338 12.7354 225.104 12.7354C311.869 12.7354 382.207 83.0855 382.207 169.868Z" stroke="black" stroke-width="4"/>
<path d="M225.457 25.9745L235.011 13.2442L215.905 13.2436L225.457 25.9745Z" fill="black"/>
<path d="M234.828 167.66C235.422 167.66 235.903 168.142 235.903 168.736C235.903 169.33 235.422 169.812 234.828 169.812H226.776V178.038C226.776 178.632 226.295 179.114 225.701 179.114C225.107 179.114 224.625 178.632 224.625 178.038V169.812H216.401C215.807 169.812 215.325 169.33 215.325 168.736C215.325 168.142 215.807 167.66 216.401 167.66H224.625V159.608C224.625 159.014 225.107 158.532 225.701 158.532C226.295 158.532 226.776 159.014 226.776 159.608V167.66H234.828Z" fill="black"/>
<ellipse cx="289.786" cy="136.349" rx="9.00288" ry="9.00451" fill="black"/>
<ellipse cx="298.789" cy="205.813" rx="9.00288" ry="9.0045" fill="black"/>
<ellipse cx="163.746" cy="234.113" rx="9.00288" ry="9.0045" fill="black"/>
<ellipse cx="321.939" cy="136.349" rx="10.289" ry="10.2909" fill="black"/>
<ellipse cx="126.448" cy="160.79" rx="10.289" ry="10.2909" fill="black"/>
<ellipse cx="285.927" cy="244.404" rx="12.8613" ry="12.8636" fill="black"/>
<ellipse cx="171.462" cy="124.772" rx="5.1445" ry="5.14543" fill="black"/>
<ellipse cx="181.751" cy="36.0136" rx="5.1445" ry="5.14543" fill="black"/>
<path d="M223.695 30.7422L228.156 37.4922V30.6797C228.156 30.237 228.25 29.9062 228.438 29.6875C228.63 29.4635 228.888 29.3516 229.211 29.3516C229.544 29.3516 229.807 29.4635 230 29.6875C230.193 29.9062 230.289 30.237 230.289 30.6797V39.6875C230.289 40.6927 229.872 41.1953 229.039 41.1953C228.831 41.1953 228.643 41.1641 228.477 41.1016C228.31 41.0443 228.154 40.9505 228.008 40.8203C227.862 40.6901 227.727 40.5391 227.602 40.3672C227.477 40.1901 227.352 40.0104 227.227 39.8281L222.875 33.1562V39.8672C222.875 40.3047 222.773 40.6354 222.57 40.8594C222.367 41.0833 222.107 41.1953 221.789 41.1953C221.461 41.1953 221.198 41.0833 221 40.8594C220.802 40.6302 220.703 40.2995 220.703 39.8672V31.0312C220.703 30.6562 220.745 30.362 220.828 30.1484C220.927 29.9141 221.091 29.724 221.32 29.5781C221.549 29.4271 221.797 29.3516 222.062 29.3516C222.271 29.3516 222.448 29.3854 222.594 29.4531C222.745 29.5208 222.875 29.612 222.984 29.7266C223.099 29.8411 223.214 29.9896 223.328 30.1719C223.448 30.3542 223.57 30.5443 223.695 30.7422Z" fill="black"/>
</g>
</svg>
