<svg width="36" height="36" viewBox="0 0 36 36" fill="none" xmlns="http://www.w3.org/2000/svg">
<path d="M9.07491 12.075C4.97991 16.17 4.97991 22.83 9.07491 26.925C11.1299 28.98 13.8149 30 16.4999 30C19.1849 30 21.8699 28.98 23.9249 26.925C29.1449 21.705 29.9999 6 29.9999 6C29.9999 6 14.2949 6.855 9.07491 12.075ZM21.8099 24.81C20.3849 26.22 18.5099 27 16.4999 27C15.1649 27 13.9049 26.625 12.7799 25.98C14.1599 21.66 16.7099 17.865 20.0999 15C16.1549 17.04 12.8399 20.19 10.5449 24C8.32491 21.06 8.51991 16.875 11.2049 14.19C13.8149 11.58 21.0599 9.975 26.6999 9.3C26.0249 14.94 24.4199 22.185 21.8099 24.81Z" fill="#00734B"/>
</svg>
