<svg width="434" height="860" viewBox="0 0 434 860" fill="none" xmlns="http://www.w3.org/2000/svg">
<g clip-path="url(#clip0_702_35198)">
<path d="M372.174 0.537598H60.9748C30.3989 0.537598 5.6123 25.3242 5.6123 55.9001V804.1C5.6123 834.676 30.3989 859.463 60.9748 859.463H372.174C402.75 859.463 427.537 834.676 427.537 804.1V55.9001C427.537 25.3242 402.75 0.537598 372.174 0.537598Z" stroke="#F6F6F1"/>
<path d="M5.0751 177V176.462C2.5691 176.462 0.537598 178.494 0.537598 181V213.001C0.537598 215.506 2.5691 217.538 5.0751 217.538V217.001H5.6126V177H5.0751Z" stroke="#F6F6F1"/>
<path d="M5.0751 233V232.462C2.5691 232.462 0.537598 234.494 0.537598 237V269.001C0.537598 271.506 2.5691 273.537 5.0751 273.537V273H5.6126V233H5.0751Z" stroke="#F6F6F1"/>
<path d="M5.0751 289V288.462C2.5691 288.462 0.537598 290.494 0.537598 293V325.001C0.537598 327.506 2.5691 329.538 5.0751 329.538V329.001H5.6126V289H5.0751Z" stroke="#F6F6F1"/>
<path d="M428.075 221.001V220.463C430.58 220.463 432.612 222.494 432.612 225V281C432.612 283.506 430.58 285.537 428.075 285.537V285H427.537V221.001H428.075Z" stroke="#F6F6F1"/>
</g>
<defs>
<clipPath id="clip0_702_35198">
<rect width="433.225" height="860" fill="white"/>
</clipPath>
</defs>
</svg>
